<?xml version="1.0" standalone="no"?>
<!DOCTYPE svg PUBLIC "-//W3C//DTD SVG 1.1//EN" "http://www.w3.org/Graphics/SVG/1.1/DTD/svg11.dtd" >
<svg xmlns="http://www.w3.org/2000/svg">
<metadata>
This is a custom SVG webfont generated by Font Squirrel.
Copyright   : Copyright c 2007 by Betatype All rights reserved
Designer    : Betatype
Foundry     : Betatype
Foundry URL : Betatypecom
</metadata>
<defs>
<font id="BoseGothicLight" horiz-adv-x="1288" >
<font-face units-per-em="2048" ascent="1536" descent="-512" />
<missing-glyph horiz-adv-x="446" />
<glyph unicode=" "  horiz-adv-x="446" />
<glyph unicode="&#x09;" horiz-adv-x="446" />
<glyph unicode="&#xa0;" horiz-adv-x="446" />
<glyph unicode="!" horiz-adv-x="520" d="M188 0v190h189v-190h-189zM219 1393h123l-4 -912h-115z" />
<glyph unicode="&#x22;" horiz-adv-x="612" d="M135 1395h98l-2 -453h-92zM377 1395h98l-2 -453h-92z" />
<glyph unicode="#" horiz-adv-x="1484" d="M123 340v94h344l74 404h-363v94h383l68 379h104l-69 -379h305l69 379h103l-68 -379h287v-94h-307l-72 -404h322v-94h-340l-60 -340h-104l59 340h-305l-61 -340h-103l60 340h-326zM571 434h306l73 404h-305z" />
<glyph unicode="$" horiz-adv-x="1181" d="M115 217l78 72q133 -197 421 -197q147 0 238.5 65.5t91.5 182.5q0 125 -76.5 189.5t-277.5 123.5q-213 63 -321.5 155.5t-108.5 248.5q0 172 123 263t323 91q29 0 74 -4l31 197l100 -15l-31 -198q168 -45 281 -170l-72 -78q-143 158 -383 157q-145 0 -237.5 -62 t-92.5 -179q0 -119 89.5 -184.5t287.5 -124.5q215 -63 312.5 -154.5t97.5 -253.5q0 -168 -124 -264t-325 -96q-8 0 -27.5 1t-27.5 1l-37 -238l-98 12l37 240q-237 51 -346 219z" />
<glyph unicode="%" horiz-adv-x="1499" d="M150 991v211q0 88 76.5 149.5t183 61.5t182.5 -61.5t76 -149.5v-211q0 -90 -75 -151.5t-183.5 -61.5t-184 60.5t-75.5 152.5zM252 997q0 -51 46 -85.5t112 -34.5q63 0 110 35.5t47 84.5v199q0 51 -46 84t-111 33q-63 0 -110.5 -34t-47.5 -83v-199zM254 0l862 1393h125 l-858 -1393h-129zM834 188v218q0 88 74.5 148t183.5 60q106 0 181 -59t75 -147v-218q0 -90 -74 -150t-182 -60q-106 0 -182 60t-76 148zM932 397l2 -200q0 -49 46 -84t112 -35q63 0 110 34.5t47 84.5v200q0 51 -46 85t-111.5 34t-112.5 -35t-47 -84z" />
<glyph unicode="&#x26;" horiz-adv-x="1464" d="M115 319q0 66 28.5 125.5t92 122t109.5 98.5l136 101l25 16l-217 226v168q0 102 89 170.5t220 68.5q162 0 250 -69.5t88 -196.5q0 -106 -69.5 -191.5t-198.5 -185.5l376 -389l213 221l86 -74l-219 -229l252 -258l-86 -76l-243 254q-233 -242 -510 -241 q-201 0 -311.5 85.5t-110.5 253.5zM236 322q0 -233 296 -234q215 0 435 215l-387 402l-29 -23l-65 -48q-50 -38 -66 -51l-55 -46q-39 -33 -55 -53l-37 -49q-22 -30 -29.5 -57t-7.5 -56zM401 1044l193 -198q109 78 168 148.5t59 150.5q0 164 -223 164q-92 0 -144.5 -42 t-52.5 -104v-119z" />
<glyph unicode="'" horiz-adv-x="456" d="M174 1454h107l-7 -463h-94z" />
<glyph unicode="(" horiz-adv-x="675" d="M193 184v727q0 215 77.5 385t212.5 250l58 -71q-109 -66 -173.5 -213.5t-64.5 -350.5v-727q0 -410 238 -557l-58 -76q-135 80 -212.5 250t-77.5 383z" />
<glyph unicode=")" horiz-adv-x="681" d="M131 -373q109 70 172.5 218.5t63.5 359.5v690q0 205 -62.5 355.5t-171.5 217.5l55 78q133 -80 211 -257t78 -394v-690q0 -215 -77.5 -392.5t-211.5 -256.5z" />
<glyph unicode="*" horiz-adv-x="804" d="M117 1200l24 82l215 -68v220h90v-220l213 68l27 -82l-213 -67l133 -179l-71 -53l-134 180l-133 -180l-71 53l133 179z" />
<glyph unicode="+" horiz-adv-x="1187" d="M78 735v101h461v434h106v-434h463v-101h-463v-469h-106v469h-461z" />
<glyph unicode="," horiz-adv-x="372" d="M57 -203q68 98 68 242v113h115v-54q0 -135 -28 -206.5t-85 -137.5z" />
<glyph unicode="-" horiz-adv-x="716" d="M106 522v107h500v-107h-500z" />
<glyph unicode="." horiz-adv-x="493" d="M154 0v188h184v-188h-184z" />
<glyph unicode="/" horiz-adv-x="780" d="M55 -174l559 1567h119l-559 -1567h-119z" />
<glyph unicode="0" horiz-adv-x="1304" d="M158 408v571q0 201 141 317.5t352 116.5t352.5 -115.5t141.5 -318.5v-571q0 -203 -140.5 -315.5t-353.5 -112.5t-353 113.5t-140 314.5zM276 410q0 -156 106.5 -238t268.5 -82q164 0 269.5 81t105.5 239v567q0 156 -106.5 239.5t-268.5 83.5t-268.5 -83.5t-106.5 -239.5 v-567z" />
<glyph unicode="1" horiz-adv-x="573" d="M68 1280v113h274v-1393h-119v1280h-155z" />
<glyph unicode="2" horiz-adv-x="1122" d="M129 1212q84 82 200.5 131.5t243.5 49.5q176 0 294 -87t118 -251q0 -78 -28.5 -144.5t-90 -122t-116 -92.5t-142.5 -86q-184 -98 -269 -214.5t-87 -286.5h762v-109h-883v55q0 225 90 369.5t307 263.5q92 51 135.5 79t99.5 75t79.5 96t23.5 111q0 115 -82 174t-217 59 q-104 0 -205.5 -46t-166.5 -110z" />
<glyph unicode="3" horiz-adv-x="1193" d="M121 285l108 18q6 -96 110.5 -153.5t244.5 -57.5q133 0 236.5 56.5t103.5 162.5v125q0 111 -99.5 173.5t-220.5 62.5h-190v104h188q117 0 212 58.5t95 158.5v80q0 117 -91 173.5t-236 56.5q-119 0 -221.5 -58.5t-106.5 -157.5l-109 19q8 135 143.5 221t299.5 86 q193 0 317.5 -86t124.5 -248v-80q0 -100 -72.5 -174.5t-173.5 -105.5q109 -31 184.5 -102.5t75.5 -184.5v-125q0 -154 -138 -239.5t-318 -85.5q-190 0 -324.5 83t-142.5 220z" />
<glyph unicode="4" horiz-adv-x="1175" d="M57 342v104l678 947h146v-940h245v-111h-245v-342h-119v342h-705zM193 453h569v766h-17z" />
<glyph unicode="5" horiz-adv-x="1193" d="M147 330l115 14q2 -117 100.5 -185.5t245.5 -68.5q127 0 225.5 67.5t98.5 182.5v137q0 117 -82 182.5t-219 65.5h-414l66 668h696v-113h-590l-45 -446h297q182 0 296 -96.5t114 -260.5v-139q0 -162 -132.5 -260t-308.5 -98q-195 0 -326 93t-137 257z" />
<glyph unicode="6" horiz-adv-x="1181" d="M141 354v697q0 164 129 263t330 99q231 0 379 -133l-64 -90q-123 113 -313 113q-152 0 -247 -68t-95 -184v-326q129 154 354 154q180 0 308.5 -93.5t128.5 -263.5v-172q0 -176 -134.5 -273t-320.5 -97t-320.5 98t-134.5 276zM260 356q0 -133 98.5 -200.5t237.5 -67.5 q137 0 236.5 67.5t99.5 200.5v162q0 125 -99.5 190.5t-236.5 65.5q-133 0 -234.5 -70.5t-101.5 -185.5v-162z" />
<glyph unicode="7" horiz-adv-x="942" d="M20 1278v115h877v-86l-455 -1307h-133l453 1278h-742z" />
<glyph unicode="8" horiz-adv-x="1253" d="M166 317v113q0 100 69.5 177t178.5 116q-98 39 -158.5 114.5t-60.5 170.5v71q0 158 128 246t304 88t303 -88t127 -246v-75q0 -90 -61.5 -166t-155.5 -115q106 -41 175.5 -116t69.5 -177v-113q0 -166 -135 -251.5t-323 -85.5q-190 0 -325.5 85.5t-135.5 251.5zM287 322 q0 -119 100 -175.5t240 -56.5q137 0 237.5 56.5t100.5 175.5v116q0 102 -98.5 167t-219.5 65h-41q-125 -2 -222 -65.5t-97 -166.5v-116zM313 997q0 -98 87 -158.5t206 -66.5h41q117 6 204 66.5t87 158.5v76q0 113 -92 171.5t-219 58.5t-220.5 -58.5t-93.5 -171.5v-76z" />
<glyph unicode="9" horiz-adv-x="1196" d="M143 840v215q0 158 137.5 258t319.5 100q180 0 317.5 -99.5t137.5 -258.5v-719q0 -170 -135.5 -263t-319.5 -93q-111 0 -222.5 36.5t-180.5 100.5l53 84q164 -111 350 -111q141 0 241.5 64.5t100.5 191.5v283q-129 -147 -350 -148q-186 0 -317.5 93.5t-131.5 265.5z M262 842q0 -125 100.5 -189.5t239.5 -64.5q131 0 231.5 69.5t100.5 184.5v207q0 115 -101.5 183t-232.5 68q-133 0 -235.5 -68.5t-102.5 -182.5v-207z" />
<glyph unicode=":" horiz-adv-x="575" d="M209 0v211h92h80v-211h-172zM209 856v209h172v-209h-172z" />
<glyph unicode=";" horiz-adv-x="622" d="M221 -203q68 98 68 242v113h114v-54q0 -135 -27.5 -206.5t-84.5 -137.5zM260 848v217h168v-217h-168z" />
<glyph unicode="&#x3c;" horiz-adv-x="1271" d="M125 494l936 540l49 -84l-784 -452l825 -432l-49 -89z" />
<glyph unicode="=" horiz-adv-x="1339" d="M119 428v102h418h684v-102h-1102zM119 874v101h1102v-101h-1102z" />
<glyph unicode="&#x3e;" horiz-adv-x="1222" d="M125 63l778 437l-743 448l55 84l887 -532l-924 -525z" />
<glyph unicode="?" horiz-adv-x="894" d="M66 1276q164 137 360 137q176 0 272.5 -74.5t96.5 -218.5v-94q0 -23 -6.5 -44l-11.5 -36.5t-22.5 -36t-24.5 -31t-32.5 -32t-32 -27.5t-37 -29.5t-34.5 -25.5q-82 -57 -122 -108.5t-40 -125.5v-131h-121v156q0 135 181 256l40 33l43 34q14 11 37 32.5t34 37t19.5 37 t8.5 43.5v84q0 100 -72 144t-182 44q-174 0 -301 -112zM279 0v190h194v-190h-194z" />
<glyph unicode="@" horiz-adv-x="1681" d="M119 524q0 102 22 275q33 264 230.5 443t486.5 179q303 0 499.5 -162.5t196.5 -414.5q0 -248 -75.5 -376t-249.5 -128q-68 0 -122 31.5t-81 87.5q-51 -66 -135 -107t-176 -41q-129 0 -190.5 60.5t-61.5 156.5q0 90 45 267q31 131 139.5 222t245.5 91q123 0 191.5 -54.5 t68.5 -152.5q0 -39 -27 -164q-29 -135 -28 -174q0 -55 38 -95t93 -40q117 0 175 100.5t58 319.5q0 215 -169 351t-435 136q-254 0 -427 -155.5t-198 -384.5q-25 -184 -24 -267q0 -197 185.5 -329.5t459.5 -132.5q176 0 330 81l45 -75q-168 -94 -375 -95q-315 0 -525 155.5 t-210 391.5zM563 551q0 -150 160 -150q106 0 188 62.5t99 157.5q47 215 47 268q0 129 -168 129q-104 0 -188.5 -75t-102.5 -179q-35 -174 -35 -213z" />
<glyph unicode="A" d="M68 0l520 1411h123l506 -1411h-130l-157 457h-568l-163 -457h-131zM395 565h500l-248 682z" />
<glyph unicode="B" horiz-adv-x="1263" d="M195 0v1393h479q178 0 289.5 -88t111.5 -254v-56q0 -94 -58.5 -167.5t-150.5 -102.5q119 -39 189.5 -119t70.5 -196v-78q0 -162 -111.5 -247t-291.5 -85h-528zM315 106h400q129 0 211 57.5t82 172.5v78q0 121 -89.5 186.5t-230.5 65.5h-373v-560zM315 768h365 q123 0 199.5 59.5t76.5 165.5v56q0 236 -294 235h-347v-516z" />
<glyph unicode="C" horiz-adv-x="1187" d="M139 428v537q0 201 146.5 324.5t363.5 123.5q293 0 449 -162l-68 -88q-137 137 -377 137q-168 0 -280.5 -93t-112.5 -246v-529q0 -166 108.5 -254t286.5 -88q242 0 381 109l60 -86q-158 -133 -445 -133q-229 0 -370.5 117.5t-141.5 330.5z" />
<glyph unicode="D" horiz-adv-x="1339" d="M195 0v1393h448q225 0 379 -122t154 -337v-481q0 -219 -154 -336t-385 -117h-442zM313 111h324q182 0 301 87t119 259v473q0 162 -122 256t-292 94h-330v-1169z" />
<glyph unicode="E" horiz-adv-x="1128" d="M195 0v1393h763v-113h-645v-514h543v-109h-543v-546h697v-111h-815z" />
<glyph unicode="F" horiz-adv-x="1019" d="M195 0v1393h759v-113h-641v-496h543v-110h-541v-674h-120z" />
<glyph unicode="G" horiz-adv-x="1306" d="M141 424v545q0 203 148.5 323.5t369.5 120.5q287 0 457 -147l-57 -90q-158 125 -397 124q-168 0 -285 -91t-117 -244v-537q0 -145 116 -241.5t283 -96.5q227 0 377 103v413h-379v107h498v-580q-215 -154 -496 -153q-221 0 -369.5 127t-148.5 317z" />
<glyph unicode="H" horiz-adv-x="1445" d="M195 0v1393h118v-666h815v666h119v-1393h-119v616h-815v-616h-118z" />
<glyph unicode="I" horiz-adv-x="587" d="M231 0v1393h119v-1393h-119z" />
<glyph unicode="J" horiz-adv-x="1116" d="M57 315l117 15q2 -104 95 -172t220 -68q141 0 227.5 66.5t86.5 189.5v1047h119v-1049q0 -170 -118 -267t-312 -97q-180 0 -305.5 92.5t-129.5 242.5z" />
<glyph unicode="K" horiz-adv-x="1269" d="M195 0v1393h118v-723l684 723h158l-635 -654l711 -739h-164l-627 653l-127 -127v-526h-118z" />
<glyph unicode="L" horiz-adv-x="1081" d="M195 0v1393h118v-1282h744v-111h-862z" />
<glyph unicode="M" horiz-adv-x="1689" d="M195 0v1393h133l516 -861l514 861h135v-1393h-121v1206l-493 -833h-72l-494 827v-1200h-118z" />
<glyph unicode="N" horiz-adv-x="1443" d="M195 0v1393h135l803 -1213v1213h114v-1393h-131l-807 1217v-1217h-114z" />
<glyph unicode="O" horiz-adv-x="1343" d="M147 424v541q0 203 141.5 325.5t362.5 122.5h35q229 0 373.5 -123t144.5 -325v-541q0 -207 -142 -325.5t-376 -118.5h-33q-229 0 -367.5 117.5t-138.5 326.5zM268 428q0 -162 103.5 -250t281.5 -88h33q182 0 290.5 88t108.5 250v533q0 156 -110.5 247.5t-288.5 91.5h-35 q-170 0 -276.5 -92t-106.5 -247v-533z" />
<glyph unicode="P" horiz-adv-x="1232" d="M195 0v1393h493q211 0 329 -103.5t118 -279.5v-101q0 -174 -116 -264t-327 -90h-379v-555h-118zM313 664h371q330 0 330 254v86q0 127 -86 201.5t-244 74.5h-371v-616z" />
<glyph unicode="Q" horiz-adv-x="1343" d="M147 424v541q0 203 141.5 325.5t362.5 122.5h35q229 0 373.5 -123t144.5 -325v-541q0 -211 -145 -330l147 -170l-78 -59l-151 176q-121 -61 -291 -61h-33q-229 0 -367.5 117.5t-138.5 326.5zM268 428q0 -162 103.5 -250t281.5 -88h33q127 0 215 41l-139 164l76 59 l145 -170q102 86 102 244v533q0 156 -110.5 247.5t-288.5 91.5h-35q-170 0 -276.5 -92t-106.5 -247v-533z" />
<glyph unicode="R" horiz-adv-x="1224" d="M197 0v1393h524q186 0 293.5 -95.5t107.5 -257.5v-82q0 -133 -77.5 -214.5t-219.5 -108.5l334 -635h-133l-315 610h-396v-610h-118zM315 717h416q119 6 194.5 66.5t75.5 170.5v84q0 109 -77.5 175.5t-210.5 66.5h-398v-563z" />
<glyph unicode="S" horiz-adv-x="1181" d="M115 217l78 72q133 -197 421 -197q147 0 238.5 65.5t91.5 182.5q0 125 -76.5 189.5t-277.5 123.5q-213 63 -321.5 155.5t-108.5 253.5q0 168 122 258q124 91 324 91q285 0 455 -190l-72 -78q-143 158 -383 157q-145 0 -237.5 -62t-92.5 -179q0 -119 89.5 -184.5 t287.5 -124.5q215 -63 312.5 -154.5t97.5 -253.5q0 -168 -124 -264t-325 -96q-158 0 -290.5 60t-208.5 175z" />
<glyph unicode="T" horiz-adv-x="1171" d="M41 1280v113h1089v-113h-491v-1280h-121v1280h-477z" />
<glyph unicode="U" horiz-adv-x="1417" d="M186 426v967h119v-963q0 -166 115 -253t289 -87q166 0 282.5 91t116.5 249v963h121v-967q0 -215 -145.5 -330.5t-375 -115.5t-376 114.5t-146.5 331.5z" />
<glyph unicode="V" horiz-adv-x="1187" d="M59 1393h131l398 -1225l409 1225h129l-479 -1393h-121z" />
<glyph unicode="W" horiz-adv-x="1822" d="M96 1393h127l269 -1231l362 1231h113l358 -1233l272 1233h127l-323 -1393h-146l-346 1204l-354 -1204h-143z" />
<glyph unicode="X" horiz-adv-x="1159" d="M76 0l434 700l-406 693h140l342 -596l354 596h141l-424 -693l424 -700h-143l-352 602l-365 -602h-145z" />
<glyph unicode="Y" horiz-adv-x="1179" d="M80 1393h139l367 -713l372 713h142l-455 -838v-555h-121v555z" />
<glyph unicode="Z" horiz-adv-x="1175" d="M113 0v76l774 1204h-746v113h897v-82l-770 -1200h793v-111h-948z" />
<glyph unicode="[" horiz-adv-x="573" d="M188 -342v1735h277v-101h-160v-1536h152v-98h-269z" />
<glyph unicode="\" horiz-adv-x="833" d="M78 1393h119l567 -1393h-119z" />
<glyph unicode="]" horiz-adv-x="569" d="M117 1290v103h272v-1719h-270v101h153v1515h-155z" />
<glyph unicode="^" horiz-adv-x="831" d="M117 918l303 497l291 -497l-99 -15l-194 332l-199 -332z" />
<glyph unicode="_" horiz-adv-x="1103" d="M117 -53h866v-97h-866v97z" />
<glyph unicode="`" horiz-adv-x="509" d="M106 1374l101 72l190 -297l-75 -51z" />
<glyph unicode="a" horiz-adv-x="1067" d="M109 258v35q0 297 690 319v127q0 109 -56.5 163t-185.5 54q-80 0 -188.5 -26.5t-155.5 -55.5l-37 93q61 39 176 68.5t213 29.5q178 0 265.5 -86t87.5 -236v-743h-105l-8 162q-41 -68 -138.5 -123t-242.5 -55q-147 0 -231 71.5t-84 202.5zM229 266q0 -178 217 -178 q145 0 249 69.5t104 155.5v205q-115 -4 -201 -14t-178 -34t-141.5 -70t-49.5 -113v-21z" />
<glyph unicode="b" horiz-adv-x="1163" d="M162 0v1413h119v-506q55 78 149 118t201 40q184 0 295.5 -101.5t111.5 -273.5v-336q0 -174 -110.5 -274t-296.5 -100q-244 0 -350 163l-11 -143h-108zM279 334q0 -117 98 -182.5t235 -65.5q139 0 223.5 70.5t84.5 197.5v336q0 123 -85 194.5t-221 71.5q-141 0 -238 -63.5 t-97 -181.5v-377z" />
<glyph unicode="c" horiz-adv-x="960" d="M119 340v358q0 166 118.5 266.5t301.5 100.5q199 0 338 -135l-62 -82q-111 104 -270 104q-131 0 -218 -70.5t-87 -189.5v-346q0 -121 91 -189.5t216 -68.5h7q155 0 271 90l54 -88q-131 -111 -338 -110q-178 0 -300 95t-122 265z" />
<glyph unicode="d" horiz-adv-x="1163" d="M125 354v336q0 172 111.5 273.5t295.5 101.5q106 0 200.5 -40t150.5 -118v506h118v-1413h-110l-8 143q-106 -164 -351 -163q-186 0 -296.5 100t-110.5 274zM244 354q0 -127 84 -197.5t223 -70.5q137 0 234.5 64.5t97.5 183.5v377q0 119 -96.5 182t-237.5 63 q-135 0 -220 -71.5t-85 -194.5v-336z" />
<glyph unicode="e" horiz-adv-x="1062" d="M119 344v373q0 143 130 244.5t300 101.5q172 0 295 -99.5t123 -246.5v-203h-729v-168q0 -121 99 -186.5t238 -65.5q209 0 322 84l47 -86q-137 -106 -373 -106q-184 0 -318 95t-134 263zM238 614h612v103q0 102 -88 170.5t-213 68.5q-123 0 -216 -69.5t-95 -169.5v-103z " />
<glyph unicode="f" horiz-adv-x="618" d="M59 946v98h142v132q0 137 92 211.5t235 74.5q115 0 213 -39l-22 -94q-88 25 -178 25q-102 0 -162 -47t-60 -138v-125h254v-98h-254v-946h-118v946h-142z" />
<glyph unicode="g" horiz-adv-x="1148" d="M113 -193q0 90 57 151.5t149 84.5q-125 59 -124 170q0 51 33.5 98t82.5 70q-152 88 -151 270v72q0 160 119.5 250t295.5 90q139 0 236 -51l262 75l31 -94l-195 -51q84 -88 84 -215v-78q0 -162 -114.5 -247t-288.5 -85q-102 0 -187 25q-94 -35 -94 -117q0 -96 156 -127 l573 -92v-190q0 -135 -121.5 -205t-289.5 -70h-99q-180 0 -297.5 63.5t-117.5 202.5zM229 -186q0 -90 87 -129t214 -39h105q262 0 283 172v110l-453 70q-98 -6 -167 -49t-69 -135zM281 645q0 -106 81.5 -165.5t223.5 -59.5q127 0 207.5 54t80.5 171v80q-8 111 -93 170 t-205.5 59t-207.5 -60t-87 -169v-80z" />
<glyph unicode="h" horiz-adv-x="1210" d="M174 0v1413h119v-567q61 102 162.5 159.5t228.5 57.5q174 0 271.5 -94.5t97.5 -263.5v-705h-119v702q0 119 -73 184.5t-197 65.5q-139 0 -255 -86t-116 -202v-664h-119z" />
<glyph unicode="i" horiz-adv-x="526" d="M195 1278v135h135v-135h-135zM205 0v1044h119v-1044h-119z" />
<glyph unicode="j" horiz-adv-x="559" d="M-84 -311q186 49 257 134t71 273v948h118v-956q0 -221 -94 -334.5t-317 -167.5zM236 1278v135h124v-135h-124z" />
<glyph unicode="k" horiz-adv-x="993" d="M174 0v1413h119v-795h82l430 426h143l-463 -471l504 -573h-145l-449 508h-102v-508h-119z" />
<glyph unicode="l" horiz-adv-x="526" d="M203 0v1413h119v-1413h-119z" />
<glyph unicode="m" horiz-adv-x="1835" d="M174 0v1044h107l4 -184q55 92 148 148.5t204 56.5q258 0 321 -195q123 195 379 195q162 0 250 -88t88 -244v-733h-119v719q0 102 -64.5 168.5t-172.5 66.5q-145 0 -240.5 -72.5t-95.5 -195.5v-686h-119v735q0 100 -65.5 159.5t-175.5 59.5q-121 0 -224.5 -88t-103.5 -194 v-672h-121z" />
<glyph unicode="n" horiz-adv-x="1212" d="M174 0v1044h109l4 -204q137 223 393 223q176 0 275.5 -93t99.5 -261v-709h-121v700q0 121 -71.5 187.5t-200.5 66.5q-131 0 -249 -88t-118 -202v-664h-121z" />
<glyph unicode="o" horiz-adv-x="1120" d="M119 346v359q0 160 130 259t310 99t309 -100.5t129 -257.5v-359q0 -160 -130 -261t-308 -101t-309 101t-131 261zM238 350q0 -115 96 -186.5t225 -71.5q127 0 223.5 72t96.5 186v350q0 113 -95.5 182.5t-224.5 69.5q-127 0 -224 -69.5t-97 -182.5v-350z" />
<glyph unicode="p" horiz-adv-x="1157" d="M154 -416v1460h108l10 -147q102 166 351 166q186 0 296.5 -100.5t110.5 -276.5v-336q0 -172 -111.5 -271t-295.5 -99q-246 0 -351 153v-549h-118zM270 332q0 -121 96.5 -183.5t239.5 -62.5q133 0 219 71.5t86 194.5v332q0 129 -85 200.5t-222 71.5t-235.5 -65.5 t-98.5 -183.5v-375z" />
<glyph unicode="q" horiz-adv-x="1157" d="M125 350v336q0 176 110.5 276.5t296.5 100.5q246 0 351 -162l8 143h110v-1460h-118v549q-106 -154 -351 -153q-184 0 -295.5 99t-111.5 271zM244 350q0 -123 85 -193.5t220 -70.5q141 0 237.5 62.5t96.5 183.5v375q0 119 -97.5 184t-234.5 65q-139 0 -223 -70.5 t-84 -199.5v-336z" />
<glyph unicode="r" horiz-adv-x="731" d="M182 0v1044h109l8 -200q33 94 107.5 157.5t173.5 63.5q66 0 120 -14l-16 -121q-51 10 -115 10q-117 0 -191.5 -104.5t-74.5 -231.5v-604h-121z" />
<glyph unicode="s" horiz-adv-x="972" d="M90 115l57 88q63 -55 161 -86t188 -31q266 0 266 182q0 78 -61.5 123t-219.5 82q-186 41 -267 111.5t-81 189.5q0 147 104.5 218t264.5 71q201 0 358 -96l-49 -90q-145 80 -301 79q-260 0 -260 -182q0 -82 62.5 -126t217.5 -75q188 -43 267.5 -114.5t79.5 -186.5 q0 -147 -104.5 -219.5t-272.5 -72.5q-104 0 -217 34.5t-193 100.5z" />
<glyph unicode="t" horiz-adv-x="790" d="M63 944v100h160v277h119v-277h324v-100h-324v-686q0 -156 172 -156q113 0 213 37l33 -96q-129 -51 -262 -51q-131 0 -203 64.5t-72 193.5v694h-160z" />
<glyph unicode="u" horiz-adv-x="1196" d="M170 342v702h119v-698q0 -121 87 -188.5t228 -67.5q139 0 227.5 67.5t88.5 188.5v698h118v-702q0 -168 -121.5 -265t-312.5 -97q-193 0 -313.5 97t-120.5 265z" />
<glyph unicode="v" horiz-adv-x="1062" d="M53 1044h129l348 -890l349 890h129l-422 -1044h-113z" />
<glyph unicode="w" horiz-adv-x="1503" d="M66 1044h122l230 -886l278 886h105l286 -886l226 886h121l-287 -1046h-115l-280 866l-279 -866h-119z" />
<glyph unicode="x" horiz-adv-x="993" d="M47 0l377 526l-354 518h139l289 -426l284 426h148l-361 -518l375 -526h-143l-305 434l-306 -434h-143z" />
<glyph unicode="y" horiz-adv-x="1005" d="M49 1044h129l318 -929l319 929h129l-414 -1157q-115 -326 -391 -325l-6 104q199 0 277 228l22 65z" />
<glyph unicode="z" horiz-adv-x="1011" d="M104 0v80l613 866h-600v98h747v-69l-610 -871h651v-104h-801z" />
<glyph unicode="{" horiz-adv-x="630" d="M168 600l88 121l-47 342q-37 272 270 444l45 -82q-240 -141 -209 -358l47 -365l-71 -96l74 -84l-50 -418q-25 -221 211 -364l-47 -84q-154 90 -221.5 197.5t-48.5 255.5l47 391z" />
<glyph unicode="|" horiz-adv-x="483" d="M186 -301v1694h109v-1694h-109z" />
<glyph unicode="}" horiz-adv-x="641" d="M166 -260q242 160 217 364l-49 418l69 84l-69 94l49 367q29 195 -213 358l43 82q152 -90 223.5 -196.5t50.5 -247.5l-49 -342l90 -121l-90 -100l49 -391q33 -264 -276 -451z" />
<glyph unicode="~" horiz-adv-x="817" d="M102 1272q78 125 174 125q49 0 139.5 -49.5t133.5 -49.5q49 4 80 68l78 -45q-68 -123 -162 -123q-61 0 -145.5 48t-125.5 48q-57 0 -98 -71z" />
<glyph unicode="&#xa1;" horiz-adv-x="514" d="M209 -350l22 954h115l21 -954h-158zM209 899v150h162v-150h-162z" />
<glyph unicode="&#xa2;" horiz-adv-x="946" d="M123 342v356q0 166 117.5 266.5t300.5 100.5h12l43 262l100 -14l-45 -260q127 -25 228 -123l-62 -84q-109 104 -270 104q-129 0 -216 -69.5t-87 -188.5v-344q0 -123 91 -190.5t216 -67.5q160 -2 276 88l56 -88q-129 -109 -338 -108q-20 0 -58 4l-43 -258l-98 14l41 260 q-121 35 -192.5 122t-71.5 218z" />
<glyph unicode="&#xa3;" horiz-adv-x="1187" d="M152 612v101h268l-23 252q-14 209 149 324.5t429 115.5v-111q-215 0 -343 -82t-116 -239l27 -260h428v-101h-418l8 -89l6 -66q2 -23 2 -25q4 -115 -17.5 -191.5t-100.5 -129.5h622v-111h-913v90q172 2 232.5 86t56.5 246l-19 190h-278z" />
<glyph unicode="&#xa5;" horiz-adv-x="1146" d="M72 1393h143l365 -711l370 711h144l-396 -729h338v-86h-385l-12 -23v-147h395v-86h-395v-322h-123v322h-416v86h416v147l-12 23h-404v86h357z" />
<glyph unicode="&#xa6;" horiz-adv-x="331" d="M117 -233v667h98v-667h-98zM117 741v670h98v-670h-98z" />
<glyph unicode="&#xa7;" horiz-adv-x="1148" d="M109 598q0 90 58 163t128 87q-70 86 -70 221q0 162 106.5 252t278.5 90q131 0 227.5 -52t145.5 -147l-80 -53q-37 72 -112.5 113t-178.5 41q-119 0 -200.5 -68.5t-81.5 -175.5q0 -45 13 -85t49 -75l60 -56q24 -22 84 -51l78 -39q18 -9 86 -38q82 -37 132.5 -65.5 t106.5 -72.5t84 -98.5t28 -121.5q0 -211 -185 -277q76 -92 76 -219q0 -152 -109.5 -244t-273.5 -92q-133 0 -240.5 58.5t-152.5 154.5l84 49q33 -74 119 -120t188 -46q121 0 201 62.5t80 173.5q0 68 -36 127t-106.5 106t-130 77t-147.5 67q-70 29 -113 52t-94 65 t-76.5 101.5t-25.5 135.5zM215 598q0 -102 66.5 -158.5t222.5 -122.5q188 -78 282 -149q66 6 114 59.5t48 112.5q0 100 -65.5 159.5t-235.5 135.5q-172 74 -266 145q-68 -6 -117 -61t-49 -121z" />
<glyph unicode="&#xa8;" horiz-adv-x="706" d="M113 1184v145h135v-145h-135zM457 1184v145h135v-145h-135z" />
<glyph unicode="&#xa9;" horiz-adv-x="1662" d="M117 713q0 297 209 507t505.5 210t505.5 -210t209 -507t-209 -505t-506 -208q-299 0 -506.5 208t-207.5 505zM205 713q0 -260 184 -443.5t444.5 -183.5t442.5 183.5t182 443.5q0 262 -183 445t-443.5 183t-443.5 -183t-183 -445zM461 649v96q0 137 112.5 237.5 t268.5 100.5q203 0 309 -133l-55 -71q-41 49 -112 78.5t-142 29.5q-115 0 -198 -72.5t-83 -169.5v-96q0 -104 84 -172.5t203 -70.5q160 0 254 90l51 -76q-111 -111 -307 -111q-164 0 -274.5 97.5t-110.5 242.5z" />
<glyph unicode="&#xaa;" horiz-adv-x="712" d="M117 946v19q0 174 370 192v47q0 66 -30.5 91.5t-94.5 25.5q-88 0 -176 -49l-32 82q96 57 229 57q96 0 149.5 -48t53.5 -140v-432h-78l-6 75q-74 -82 -203 -82q-82 0 -132 40t-50 122zM211 950q0 -74 104 -73q61 0 114.5 29.5t53.5 68.5v100q-272 -14 -272 -110v-15z" />
<glyph unicode="&#xab;" horiz-adv-x="952" d="M117 356l321 369l58 -70l-244 -295l244 -290l-58 -70zM457 356l321 369l58 -70l-242 -295l242 -290l-58 -70z" />
<glyph unicode="&#xac;" horiz-adv-x="923" d="M117 586v94h688v-295h-94v201h-594z" />
<glyph unicode="&#xad;" horiz-adv-x="716" d="M106 522v107h500v-107h-500z" />
<glyph unicode="&#xae;" horiz-adv-x="1662" d="M117 713q0 299 207.5 508t506.5 209q297 0 506 -209t209 -508q0 -297 -208 -505t-507 -208t-506.5 207t-207.5 506zM205 713q0 -262 183 -444.5t446 -182.5q260 0 442 182.5t182 444.5t-183 445t-444 183q-262 0 -444 -183t-182 -445zM575 315v793h326q96 0 164 -65.5 t68 -157.5v-31q0 -78 -51.5 -134t-135.5 -69l207 -336h-117l-200 330h-164v-330h-97zM672 729h217q57 0 104 35t47 88v31q-2 55 -46 96t-105 41h-217v-291z" />
<glyph unicode="&#xaf;" horiz-adv-x="972" d="M133 1303v83h705v-83h-705z" />
<glyph unicode="&#xb0;" horiz-adv-x="774" d="M117 1139v55q0 92 77.5 154.5t190.5 64.5q113 -2 191.5 -64.5t78.5 -154.5v-55q0 -92 -78.5 -153.5t-191.5 -61.5t-190.5 61.5t-77.5 153.5zM211 1135q2 -53 52 -88t122 -35t122 35.5t50 87.5v63q0 53 -50 89t-122 36t-123 -37t-51 -88v-63z" />
<glyph unicode="&#xb1;" horiz-adv-x="1122" d="M117 0v94h887v-94h-887zM123 629v96h375v356h102v-356h381v-96h-381v-381h-102v381h-375z" />
<glyph unicode="&#xb2;" horiz-adv-x="778" d="M111 1282q49 59 126.5 94t165.5 35q137 0 203 -55.5t66 -147.5q0 -82 -61.5 -135t-164.5 -100q-70 -31 -109.5 -54.5t-74.5 -64.5t-37 -88h463v-94h-571v80q0 102 65.5 165.5t182.5 116.5q66 25 99.5 41.5t69 51t35.5 73.5q0 117 -176 117q-133 0 -223 -100z" />
<glyph unicode="&#xb3;" horiz-adv-x="755" d="M102 836l82 20q6 -55 66.5 -86t142.5 -31q184 0 185 107v31q0 53 -57.5 84.5t-131.5 31.5h-137v88h127q188 0 188 115v16q0 106 -182 107q-80 0 -137.5 -33t-61.5 -88l-77 25q8 82 91 136t191 54q121 0 201 -48t80 -151v-14q0 -127 -146 -164q154 -39 154 -159v-33 q0 -100 -80 -148.5t-201 -48.5q-115 0 -202 53.5t-95 135.5z" />
<glyph unicode="&#xb4;" horiz-adv-x="505" d="M109 1151l198 283l92 -64l-213 -264z" />
<glyph unicode="&#xb6;" horiz-adv-x="1054" d="M117 1040v70q0 119 84 200t231 83h424v-1393h-90v1313h-178v-1313h-92v770h-64q-141 0 -228 71.5t-87 198.5z" />
<glyph unicode="&#xb7;" horiz-adv-x="393" d="M154 408v188h184v-188h-184z" />
<glyph unicode="&#xb8;" horiz-adv-x="473" d="M113 -168l41 168h98l-33 -109l6 -2q6 -2 12.5 -5t15.5 -9t19.5 -12t20.5 -15.5t19.5 -19.5t18.5 -24.5t15 -29t10 -32.5t4 -39q0 -76 -57 -129t-153 -80l-33 68q53 18 100 51t47 78q1 104 -151 141z" />
<glyph unicode="&#xb9;" horiz-adv-x="456" d="M78 1292v101h227v-707h-104v606h-123z" />
<glyph unicode="&#xba;" horiz-adv-x="755" d="M117 1006v192q0 90 75.5 152.5t184.5 62.5q106 0 183 -62.5t77 -152.5v-194q0 -90 -77 -151.5t-183 -61.5q-109 0 -184.5 61.5t-75.5 153.5zM213 1008q4 -59 49 -93t115 -34q66 0 114 34.5t48 88.5v196q-4 53 -51.5 87t-110.5 34q-68 0 -116 -34t-48 -87v-192z" />
<glyph unicode="&#xbb;" horiz-adv-x="940" d="M92 70l242 290l-242 295l55 70l326 -369l-326 -356zM434 70l240 290l-240 295l55 70l324 -369l-324 -356z" />
<glyph unicode="&#xbc;" horiz-adv-x="1329" d="M109 0l862 1393h125l-858 -1393h-129zM170 1292v101h229v-707h-104v606h-125zM590 184v74l373 473h141v-465h135v-82h-135v-180h-103v180h-411zM702 266h299v359h-10z" />
<glyph unicode="&#xbd;" horiz-adv-x="1390" d="M109 0l862 1393h125l-858 -1393h-129zM170 1292v101h229v-707h-104v606h-125zM729 606q49 59 127 94t166 35q137 0 202.5 -55t65.5 -148q0 -82 -61.5 -135t-163.5 -100q-70 -31 -110 -54.5t-74.5 -64.5t-36.5 -88h463v-94h-572v80q0 102 65.5 165.5t182.5 116.5 q66 25 99.5 41.5t69.5 51t36 73.5q0 117 -176 117q-133 0 -224 -100z" />
<glyph unicode="&#xbe;" horiz-adv-x="1488" d="M94 836l82 20q4 -55 64.5 -86t144.5 -31q184 0 184 107v31q0 53 -57 84.5t-131 31.5h-137v88h125q190 0 190 115v16q0 106 -182 107q-80 0 -137.5 -33t-63.5 -88l-78 25q8 82 92 136t193 54q121 0 200 -48t79 -151v-14q0 -127 -144 -164q154 -39 154 -159v-33 q0 -100 -80 -148.5t-201 -48.5q-115 0 -202 53.5t-95 135.5zM305 0l862 1393h125l-858 -1393h-129zM756 182v74l372 473h144v-465h133v-82h-133v-180h-103v180h-413zM870 264h299v359h-12z" />
<glyph unicode="&#xbf;" horiz-adv-x="813" d="M100 27q0 49 28 95t51.5 69.5t80.5 70.5q49 39 74.5 65.5t48.5 69.5t23 92v152h120v-172q0 -72 -43 -129t-125 -125q-45 -39 -68.5 -61.5t-46 -58.5t-22.5 -68v-125q0 -188 215 -189q121 0 254 115l53 -86q-152 -141 -315 -141q-328 0 -328 293v133zM362 856v193h195 v-193h-195z" />
<glyph unicode="&#xc0;" d="M68 0l520 1411h123l506 -1411h-130l-157 457h-568l-163 -457h-131zM395 565h500l-248 682zM422 1788l100 72l191 -297l-76 -52z" />
<glyph unicode="&#xc1;" d="M68 0l520 1411h123l506 -1411h-130l-157 457h-568l-163 -457h-131zM395 565h500l-248 682zM580 1552l198 283l92 -63l-213 -265z" />
<glyph unicode="&#xc2;" d="M68 0l520 1411h123l506 -1411h-130l-157 457h-568l-163 -457h-131zM389 1569l252 172l254 -172l-53 -68l-201 129l-203 -127zM395 565h500l-248 682z" />
<glyph unicode="&#xc3;" d="M68 0l520 1411h123l506 -1411h-130l-157 457h-568l-163 -457h-131zM340 1575q78 125 174 125q49 0 139 -49t133 -49q49 4 80 67l78 -45q-68 -123 -162 -123q-61 0 -145 48t-125 48q-57 0 -98 -71zM395 565h500l-248 682z" />
<glyph unicode="&#xc4;" d="M68 0l520 1411h123l506 -1411h-130l-157 457h-568l-163 -457h-131zM395 565h500l-248 682zM401 1546v146h136v-146h-136zM745 1546v146h136v-146h-136z" />
<glyph unicode="&#xc5;" d="M68 0l520 1411h123l506 -1411h-130l-157 457h-568l-163 -457h-131zM395 565h500l-248 682zM479 1663q0 66 48 112t114 46q68 0 116 -45t48 -113q0 -66 -49 -113t-115 -47t-114 47t-48 113zM557 1659q0 -35 25.5 -59.5t60.5 -24.5t59.5 24.5t24.5 59.5t-25.5 61.5 t-58.5 26.5q-35 0 -60.5 -26.5t-25.5 -61.5z" />
<glyph unicode="&#xc6;" horiz-adv-x="1771" d="M35 0l860 1393h727v-113h-559v-506h465v-106h-465v-557h610v-111h-731v406h-514l-254 -406h-139zM485 512h457v754z" />
<glyph unicode="&#xc7;" horiz-adv-x="1228" d="M141 428v537q0 201 147.5 324.5t362.5 123.5q293 0 449 -162l-68 -90q-141 137 -377 137q-166 0 -278.5 -92t-112.5 -245v-529q0 -166 108.5 -253t286.5 -87q240 0 377 109l62 -88q-154 -129 -439 -133l-26 -89q14 -4 41.5 -18t63.5 -60t36 -108q0 -78 -57.5 -131 t-153.5 -80l-35 70q147 49 148 129q0 106 -152 139l37 154q-193 23 -306.5 137.5t-113.5 304.5z" />
<glyph unicode="&#xc8;" horiz-adv-x="1128" d="M195 0v1393h763v-113h-645v-514h543v-109h-543v-546h697v-111h-815zM365 1769l100 72l190 -297l-75 -51z" />
<glyph unicode="&#xc9;" horiz-adv-x="1130" d="M195 0v1393h763v-113h-645v-514h543v-109h-543v-546h697v-111h-815zM524 1536l199 283l92 -64l-213 -264z" />
<glyph unicode="&#xca;" horiz-adv-x="1128" d="M195 0v1393h763v-113h-645v-514h543v-109h-543v-546h697v-111h-815zM332 1550l252 172l254 -172l-54 -67l-200 129l-203 -127z" />
<glyph unicode="&#xcb;" horiz-adv-x="1128" d="M195 0v1393h763v-113h-645v-514h543v-109h-543v-546h697v-111h-815zM346 1526v145h135v-145h-135zM690 1526v145h135v-145h-135z" />
<glyph unicode="&#xcc;" horiz-adv-x="587" d="M72 1769l100 72l190 -297l-75 -51zM231 0v1393h119v-1393h-119z" />
<glyph unicode="&#xcd;" horiz-adv-x="587" d="M227 1534l199 283l92 -64l-213 -264zM231 0v1393h119v-1393h-119z" />
<glyph unicode="&#xce;" horiz-adv-x="587" d="M39 1550l252 172l254 -172l-53 -67l-201 129l-203 -127zM231 0v1393h119v-1393h-119z" />
<glyph unicode="&#xcf;" horiz-adv-x="587" d="M53 1526v145h135v-145h-135zM231 0v1393h119v-1393h-119zM397 1526v145h135v-145h-135z" />
<glyph unicode="&#xd0;" horiz-adv-x="1372" d="M59 651v105h193v637h444q236 0 386.5 -121t150.5 -334v-489q0 -217 -149.5 -333t-393.5 -116h-438v651h-193zM371 111h319q193 0 308.5 86t115.5 256v481q0 162 -118.5 254t-299.5 92h-323v-524h338v-105h-340v-540z" />
<glyph unicode="&#xd1;" horiz-adv-x="1443" d="M190 0v1393h134l802 -1213v1213h115v-1393h-129l-807 1217v-1217h-115zM418 1556q78 125 174 125q49 0 138 -49t134 -49t80 68l78 -45q-68 -123 -162 -123q-61 0 -145 48t-125 48q-57 0 -98 -72z" />
<glyph unicode="&#xd2;" horiz-adv-x="1343" d="M147 424v541q0 203 141.5 325.5t362.5 122.5h35q229 0 373.5 -123t144.5 -325v-541q0 -207 -142 -325.5t-376 -118.5h-33q-229 0 -367.5 117.5t-138.5 326.5zM268 428q0 -162 103.5 -250t281.5 -88h33q182 0 290.5 88t108.5 250v533q0 156 -110.5 247.5t-288.5 91.5h-35 q-170 0 -276.5 -92t-106.5 -247v-533zM442 1790l101 72l190 -297l-76 -52z" />
<glyph unicode="&#xd3;" horiz-adv-x="1343" d="M147 424v541q0 203 141.5 325.5t362.5 122.5h35q229 0 373.5 -123t144.5 -325v-541q0 -207 -142 -325.5t-376 -118.5h-33q-229 0 -367.5 117.5t-138.5 326.5zM268 428q0 -162 103.5 -250t281.5 -88h33q182 0 290.5 88t108.5 250v533q0 156 -110.5 247.5t-288.5 91.5h-35 q-170 0 -276.5 -92t-106.5 -247v-533zM600 1554l199 283l92 -63l-213 -265z" />
<glyph unicode="&#xd4;" horiz-adv-x="1343" d="M147 424v541q0 203 141.5 325.5t362.5 122.5h35q229 0 373.5 -123t144.5 -325v-541q0 -207 -142 -325.5t-376 -118.5h-33q-229 0 -367.5 117.5t-138.5 326.5zM268 428q0 -162 103.5 -250t281.5 -88h33q182 0 290.5 88t108.5 250v533q0 156 -110.5 247.5t-288.5 91.5h-35 q-170 0 -276.5 -92t-106.5 -247v-533zM410 1571l252 172l253 -172l-53 -68l-200 129l-203 -127z" />
<glyph unicode="&#xd5;" horiz-adv-x="1343" d="M147 424v541q0 203 141.5 325.5t362.5 122.5h35q229 0 373.5 -123t144.5 -325v-541q0 -207 -142 -325.5t-376 -118.5h-33q-229 0 -367.5 117.5t-138.5 326.5zM268 428q0 -162 103.5 -250t281.5 -88h33q182 0 290.5 88t108.5 250v533q0 156 -110.5 247.5t-288.5 91.5h-35 q-170 0 -276.5 -92t-106.5 -247v-533zM360 1577q78 125 175 125q49 0 139 -49t133 -49q49 6 80 67l78 -45q-68 -123 -162 -123q-61 0 -145.5 48t-125.5 48q-57 0 -98 -71z" />
<glyph unicode="&#xd6;" horiz-adv-x="1343" d="M147 424v541q0 203 141.5 325.5t362.5 122.5h35q229 0 373.5 -123t144.5 -325v-541q0 -207 -142 -325.5t-376 -118.5h-33q-229 0 -367.5 117.5t-138.5 326.5zM268 428q0 -162 103.5 -250t281.5 -88h33q182 0 290.5 88t108.5 250v533q0 156 -110.5 247.5t-288.5 91.5h-35 q-170 0 -276.5 -92t-106.5 -247v-533zM424 1548v146h135v-146h-135zM768 1548v146h135v-146h-135z" />
<glyph unicode="&#xd7;" horiz-adv-x="1155" d="M115 0l399 518l-375 486h119l315 -404l322 404h119l-377 -486l401 -518h-127l-338 436l-335 -436h-123z" />
<glyph unicode="&#xd8;" horiz-adv-x="1316" d="M143 424v541q0 203 140.5 325.5t361.5 122.5h35q115 0 231 -41l80 187h99l-99 -226q209 -123 209 -368v-541q0 -207 -142.5 -325.5t-377.5 -118.5h-33q-129 0 -227 36l-74 -170h-102l92 209q-193 115 -193 369zM262 428q0 -172 121 -264l481 1104q-78 33 -184 32h-35 q-170 0 -276.5 -92t-106.5 -247v-533zM465 121q80 -31 182 -31h33q184 0 292.5 88t108.5 250v533q0 172 -137 266z" />
<glyph unicode="&#xd9;" horiz-adv-x="1417" d="M186 426v967h119v-963q0 -166 115 -253t289 -87q166 0 282.5 91t116.5 249v963h121v-967q0 -215 -145.5 -330.5t-375 -115.5t-376 114.5t-146.5 331.5zM485 1769l101 72l190 -297l-76 -51z" />
<glyph unicode="&#xda;" horiz-adv-x="1417" d="M186 426v967h119v-963q0 -166 115 -253t289 -87q166 0 282.5 91t116.5 249v963h121v-967q0 -215 -145.5 -330.5t-375 -115.5t-376 114.5t-146.5 331.5zM643 1534l199 283l92 -64l-213 -264z" />
<glyph unicode="&#xdb;" horiz-adv-x="1417" d="M186 426v967h119v-963q0 -166 115 -253t289 -87q166 0 282.5 91t116.5 249v963h121v-967q0 -215 -145.5 -330.5t-375 -115.5t-376 114.5t-146.5 331.5zM453 1550l252 172l253 -172l-53 -67l-200 129l-203 -127z" />
<glyph unicode="&#xdc;" horiz-adv-x="1417" d="M186 426v967h119v-963q0 -166 115 -253t289 -87q166 0 282.5 91t116.5 249v963h121v-967q0 -215 -145.5 -330.5t-375 -115.5t-376 114.5t-146.5 331.5zM467 1526v145h135v-145h-135zM811 1526v145h135v-145h-135z" />
<glyph unicode="&#xdd;" horiz-adv-x="1179" d="M80 1393h139l367 -713l372 713h142l-455 -838v-555h-121v555zM528 1534l199 283l92 -64l-213 -264z" />
<glyph unicode="&#xde;" horiz-adv-x="1120" d="M152 -2v1395h120v-281h369q162 0 265.5 -102.5t103.5 -249.5v-41q0 -141 -100.5 -232.5t-268.5 -91.5h-369v-397h-120zM272 506h365q117 0 185.5 60.5t68.5 152.5v41q0 94 -69.5 167.5t-184.5 73.5h-365v-495z" />
<glyph unicode="&#xdf;" horiz-adv-x="1335" d="M98 942v102h121v168q0 135 102.5 219.5t247.5 84.5q104 0 197 -35l-31 -99q-72 25 -153 25q-117 0 -182.5 -52t-65.5 -157v-154h831v-98l-315 -336h96q141 -2 206 -75.5t65 -163.5v-152q0 -96 -90.5 -165.5t-225.5 -69.5q-113 0 -196.5 42t-118.5 109l78 60 q23 -47 85 -78t142 -31q90 0 149.5 38t59.5 99v142q0 68 -46 107.5t-134 39.5h-211v96l311 332h-684v-940h-117v942h-121z" />
<glyph unicode="&#xe0;" horiz-adv-x="1067" d="M109 258v35q0 297 690 319v127q0 109 -56.5 163t-185.5 54q-80 0 -188.5 -26.5t-155.5 -55.5l-37 93q61 39 176 68.5t213 29.5q178 0 265.5 -86t87.5 -236v-743h-105l-8 162q-41 -68 -138.5 -123t-242.5 -55q-147 0 -231 71.5t-84 202.5zM229 266q0 -178 217 -178 q145 0 249 69.5t104 155.5v205q-115 -4 -201 -14t-178 -34t-141.5 -70t-49.5 -113v-21zM317 1466l101 72l190 -297l-76 -51z" />
<glyph unicode="&#xe1;" horiz-adv-x="1067" d="M109 258v35q0 297 690 319v127q0 109 -56.5 163t-185.5 54q-80 0 -188.5 -26.5t-155.5 -55.5l-37 93q61 39 176 68.5t213 29.5q178 0 265.5 -86t87.5 -236v-743h-105l-8 162q-41 -68 -138.5 -123t-242.5 -55q-147 0 -231 71.5t-84 202.5zM229 266q0 -178 217 -178 q145 0 249 69.5t104 155.5v205q-115 -4 -201 -14t-178 -34t-141.5 -70t-49.5 -113v-21zM475 1231l199 282l92 -63l-213 -264z" />
<glyph unicode="&#xe2;" horiz-adv-x="1067" d="M109 258v35q0 297 690 319v127q0 109 -56.5 163t-185.5 54q-80 0 -188.5 -26.5t-155.5 -55.5l-37 93q61 39 176 68.5t213 29.5q178 0 265.5 -86t87.5 -236v-743h-105l-8 162q-41 -68 -138.5 -123t-242.5 -55q-147 0 -231 71.5t-84 202.5zM229 266q0 -178 217 -178 q145 0 249 69.5t104 155.5v205q-115 -4 -201 -14t-178 -34t-141.5 -70t-49.5 -113v-21zM285 1247l252 172l254 -172l-54 -67l-200 129l-203 -127z" />
<glyph unicode="&#xe3;" horiz-adv-x="1067" d="M109 258v35q0 297 690 319v127q0 109 -56.5 163t-185.5 54q-80 0 -188.5 -26.5t-155.5 -55.5l-37 93q61 39 176 68.5t213 29.5q178 0 265.5 -86t87.5 -236v-743h-105l-8 162q-41 -68 -138.5 -123t-242.5 -55q-147 0 -231 71.5t-84 202.5zM229 266q0 -178 217 -178 q145 0 249 69.5t104 155.5v205q-115 -4 -201 -14t-178 -34t-141.5 -70t-49.5 -113v-21zM236 1253q78 125 174 125q49 0 139 -49t133 -49q49 6 80 68l78 -45q-68 -123 -162 -123q-61 0 -145 48t-125 48q-57 0 -99 -72z" />
<glyph unicode="&#xe4;" horiz-adv-x="1067" d="M109 258v35q0 297 690 319v127q0 109 -56.5 163t-185.5 54q-80 0 -188.5 -26.5t-155.5 -55.5l-37 93q61 39 176 68.5t213 29.5q178 0 265.5 -86t87.5 -236v-743h-105l-8 162q-41 -68 -138.5 -123t-242.5 -55q-147 0 -231 71.5t-84 202.5zM229 266q0 -178 217 -178 q145 0 249 69.5t104 155.5v205q-115 -4 -201 -14t-178 -34t-141.5 -70t-49.5 -113v-21zM299 1223v145h135v-145h-135zM643 1223v145h135v-145h-135z" />
<glyph unicode="&#xe5;" horiz-adv-x="1067" d="M109 258v35q0 297 690 319v127q0 109 -56.5 163t-185.5 54q-80 0 -188.5 -26.5t-155.5 -55.5l-37 93q61 39 176 68.5t213 29.5q178 0 265.5 -86t87.5 -236v-743h-105l-8 162q-41 -68 -138.5 -123t-242.5 -55q-147 0 -231 71.5t-84 202.5zM229 266q0 -178 217 -178 q145 0 249 69.5t104 155.5v205q-115 -4 -201 -14t-178 -34t-141.5 -70t-49.5 -113v-21zM375 1339.5q0 65.5 48 111.5t114 46q68 0 115.5 -45t47.5 -113q0 -66 -49 -112.5t-114.5 -46.5t-113.5 47t-48 112.5zM453 1335q0 -35 25.5 -59.5t60 -24.5t59.5 24.5t25 59.5t-26 61.5 t-58 26.5q-35 0 -60.5 -26.5t-25.5 -61.5z" />
<glyph unicode="&#xe6;" horiz-adv-x="1757" d="M109 289v207l694 86v147q0 115 -65.5 175.5t-192.5 60.5q-84 0 -186.5 -32t-165.5 -65l-37 95q68 43 178 76.5t215 33.5q242 0 321 -176q51 80 150.5 129t224.5 49q180 0 292 -93t112 -255v-152l-721 -75v-158q0 -121 100 -184.5t254 -63.5q106 0 192.5 30t129.5 62 l53 -82q-145 -119 -379 -118q-311 0 -422 190q-104 -190 -379 -190q-158 0 -263 82t-105 221zM227 291q0 -94 77 -148.5t190 -54.5q125 0 218 54.5t93 156.5v190l-578 -69v-129zM928 594l608 61v82q0 113 -81 172.5t-212 59.5q-129 0 -222 -73t-93 -169v-133z" />
<glyph unicode="&#xe7;" horiz-adv-x="966" d="M123 342v356q0 166 117.5 266.5t300.5 100.5q199 0 338 -135l-62 -84q-109 104 -270 104q-129 0 -216 -69.5t-87 -188.5v-344q0 -123 91 -190.5t216 -67.5q160 -2 276 88l56 -88q-129 -109 -338 -108l-27 -91q14 -4 42 -18t63.5 -60t35.5 -108q0 -78 -57 -131t-153 -80 l-35 70q147 49 147 129q0 106 -151 139l36 158q-145 25 -234 115t-89 237z" />
<glyph unicode="&#xe8;" horiz-adv-x="1073" d="M119 344v373q0 143 130 244.5t300 101.5q172 0 295 -99.5t123 -246.5v-203h-729v-168q0 -121 99 -186.5t238 -65.5q209 0 322 84l47 -86q-137 -106 -373 -106q-184 0 -318 95t-134 263zM238 614h612v103q0 102 -88 170.5t-213 68.5q-123 0 -216 -69.5t-95 -169.5v-103z M313 1466l101 72l190 -297l-76 -51z" />
<glyph unicode="&#xe9;" horiz-adv-x="1073" d="M119 344v373q0 143 130 244.5t300 101.5q172 0 295 -99.5t123 -246.5v-203h-729v-168q0 -121 99 -186.5t238 -65.5q209 0 322 84l47 -86q-137 -106 -373 -106q-184 0 -318 95t-134 263zM238 614h612v103q0 102 -88 170.5t-213 68.5q-123 0 -216 -69.5t-95 -169.5v-103z M471 1231l199 282l92 -63l-213 -264z" />
<glyph unicode="&#xea;" horiz-adv-x="1073" d="M119 344v373q0 143 130 244.5t300 101.5q172 0 295 -99.5t123 -246.5v-203h-729v-168q0 -121 99 -186.5t238 -65.5q209 0 322 84l47 -86q-137 -106 -373 -106q-184 0 -318 95t-134 263zM238 614h612v103q0 102 -88 170.5t-213 68.5q-123 0 -216 -69.5t-95 -169.5v-103z M281 1247l251 172l254 -172l-53 -67l-201 129l-202 -127z" />
<glyph unicode="&#xeb;" horiz-adv-x="1073" d="M119 344v373q0 143 130 244.5t300 101.5q172 0 295 -99.5t123 -246.5v-203h-729v-168q0 -121 99 -186.5t238 -65.5q209 0 322 84l47 -86q-137 -106 -373 -106q-184 0 -318 95t-134 263zM238 614h612v103q0 102 -88 170.5t-213 68.5q-123 0 -216 -69.5t-95 -169.5v-103z M293 1223v145h135v-145h-135zM637 1223v145h135v-145h-135z" />
<glyph unicode="&#xec;" horiz-adv-x="524" d="M37 1454l100 72l191 -297l-76 -51zM197 0v1047h118v-1047h-118z" />
<glyph unicode="&#xed;" horiz-adv-x="524" d="M193 1219l198 282l92 -63l-213 -264zM197 0v1047h118v-1047h-118z" />
<glyph unicode="&#xee;" horiz-adv-x="524" d="M2 1235l252 172l254 -172l-53 -68l-201 129l-203 -127zM197 0v1047h118v-1047h-118z" />
<glyph unicode="&#xef;" horiz-adv-x="524" d="M16 1210v146h136v-146h-136zM197 0v1047h118v-1047h-118zM360 1210v146h136v-146h-136z" />
<glyph unicode="&#xf0;" horiz-adv-x="1128" d="M119 336v315q0 154 116.5 256.5t292.5 102.5q209 0 322 -129q-43 186 -205 354l-295 -131l-33 74l258 114q-137 117 -301 148l39 100q221 -57 381 -199l260 117l37 -74l-233 -106q231 -236 231 -608v-334q0 -150 -131 -253t-313 -103q-180 0 -303 102t-123 254zM240 344 q0 -109 88 -181.5t217 -72.5q131 0 227 74t96 178v301q0 106 -96 180t-227 74q-127 0 -216 -72.5t-89 -179.5v-301z" />
<glyph unicode="&#xf1;" horiz-adv-x="1212" d="M174 0v1044h109l4 -204q137 223 393 223q176 0 275.5 -93t99.5 -261v-709h-121v700q0 121 -71.5 187.5t-200.5 66.5q-131 0 -249 -88t-118 -202v-664h-121zM301 1253q78 125 174 125q49 0 139.5 -49t133.5 -49q49 6 79 68l78 -45q-68 -123 -162 -123q-61 0 -145 48 t-125 48q-57 0 -98 -72z" />
<glyph unicode="&#xf2;" horiz-adv-x="1120" d="M119 346v359q0 160 130 259t310 99t309 -100.5t129 -257.5v-359q0 -160 -130 -261t-308 -101t-309 101t-131 261zM238 350q0 -115 96 -186.5t225 -71.5q127 0 223.5 72t96.5 186v350q0 113 -95.5 182.5t-224.5 69.5q-127 0 -224 -69.5t-97 -182.5v-350zM328 1466l100 72 l190 -297l-75 -51z" />
<glyph unicode="&#xf3;" horiz-adv-x="1120" d="M119 346v359q0 160 130 259t310 99t309 -100.5t129 -257.5v-359q0 -160 -130 -261t-308 -101t-309 101t-131 261zM238 350q0 -115 96 -186.5t225 -71.5q127 0 223.5 72t96.5 186v350q0 113 -95.5 182.5t-224.5 69.5q-127 0 -224 -69.5t-97 -182.5v-350zM487 1231l199 282 l92 -63l-213 -264z" />
<glyph unicode="&#xf4;" horiz-adv-x="1120" d="M119 346v359q0 160 130 259t310 99t309 -100.5t129 -257.5v-359q0 -160 -130 -261t-308 -101t-309 101t-131 261zM238 350q0 -115 96 -186.5t225 -71.5q127 0 223.5 72t96.5 186v350q0 113 -95.5 182.5t-224.5 69.5q-127 0 -224 -69.5t-97 -182.5v-350zM295 1247l252 172 l254 -172l-53 -67l-201 129l-203 -127z" />
<glyph unicode="&#xf5;" horiz-adv-x="1120" d="M119 346v359q0 160 130 259t310 99t309 -100.5t129 -257.5v-359q0 -160 -130 -261t-308 -101t-309 101t-131 261zM238 350q0 -115 96 -186.5t225 -71.5q127 0 223.5 72t96.5 186v350q0 113 -95.5 182.5t-224.5 69.5q-127 0 -224 -69.5t-97 -182.5v-350zM246 1255 q78 123 174 123q49 0 138 -49t134 -49t80 68l78 -45q-68 -123 -162 -123q-61 0 -145 48t-125 48q-59 0 -99 -72z" />
<glyph unicode="&#xf6;" horiz-adv-x="1120" d="M119 346v359q0 160 130 259t310 99t309 -100.5t129 -257.5v-359q0 -160 -130 -261t-308 -101t-309 101t-131 261zM238 350q0 -115 96 -186.5t225 -71.5q127 0 223.5 72t96.5 186v350q0 113 -95.5 182.5t-224.5 69.5q-127 0 -224 -69.5t-97 -182.5v-350zM309 1223v145h135 v-145h-135zM653 1223v145h135v-145h-135z" />
<glyph unicode="&#xf7;" horiz-adv-x="1406" d="M117 537v96h1173v-96h-1173zM602 170v182h189v-182h-189zM602 807v184h189v-184h-189z" />
<glyph unicode="&#xf8;" horiz-adv-x="1114" d="M125 -121l127 215q-117 102 -117 252v359q0 160 130 259t310 99q117 0 220 -45l86 145h96l-111 -186q147 -106 148 -272v-359q0 -160 -130 -261t-309 -101q-145 0 -253 63l-99 -168h-98zM254 350q0 -88 59 -151l424 721q-78 33 -162 32q-127 0 -224 -69.5t-97 -182.5 v-350zM379 145q84 -53 196 -53q127 0 223.5 72t96.5 186v350q0 104 -88 177z" />
<glyph unicode="&#xf9;" horiz-adv-x="1196" d="M170 342v702h119v-698q0 -121 87 -188.5t228 -67.5q139 0 227.5 67.5t88.5 188.5v698h118v-702q0 -168 -121.5 -265t-312.5 -97q-193 0 -313.5 97t-120.5 265zM375 1446l100 72l191 -297l-76 -52z" />
<glyph unicode="&#xfa;" horiz-adv-x="1196" d="M170 342v702h119v-698q0 -121 87 -188.5t228 -67.5q139 0 227.5 67.5t88.5 188.5v698h118v-702q0 -168 -121.5 -265t-312.5 -97q-193 0 -313.5 97t-120.5 265zM532 1210l199 283l92 -63l-213 -265z" />
<glyph unicode="&#xfb;" horiz-adv-x="1196" d="M170 342v702h119v-698q0 -121 87 -188.5t228 -67.5q139 0 227.5 67.5t88.5 188.5v698h118v-702q0 -168 -121.5 -265t-312.5 -97q-193 0 -313.5 97t-120.5 265zM340 1229l252 172l254 -172l-53 -68l-201 129l-203 -127z" />
<glyph unicode="&#xfc;" horiz-adv-x="1196" d="M170 342v702h119v-698q0 -121 87 -188.5t228 -67.5q139 0 227.5 67.5t88.5 188.5v698h118v-702q0 -168 -121.5 -265t-312.5 -97q-193 0 -313.5 97t-120.5 265zM354 1202v146h135v-146h-135zM698 1202v146h136v-146h-136z" />
<glyph unicode="&#xfd;" horiz-adv-x="1005" d="M49 1044h129l318 -929l319 929h129l-414 -1157q-115 -326 -391 -325l-6 104q199 0 277 228l22 65zM426 1219l199 282l92 -63l-213 -264z" />
<glyph unicode="&#xfe;" horiz-adv-x="1181" d="M172 -481v1892h121v-512q131 168 354 168q176 0 294 -102.5t118 -255.5v-371q0 -152 -118 -255t-294 -103q-233 0 -358 161v-622h-117zM303 340q0 -104 98.5 -179t229.5 -75q129 0 219 72.5t90 183.5v363q0 111 -90 183.5t-219 72.5q-131 0 -229.5 -76t-98.5 -180v-365z " />
<glyph unicode="&#xff;" horiz-adv-x="1005" d="M49 1044h129l318 -929l319 929h129l-414 -1157q-115 -326 -391 -325l-6 104q199 0 277 228l22 65zM256 1202v146h135v-146h-135zM600 1202v146h135v-146h-135z" />
<glyph unicode="&#x152;" horiz-adv-x="1865" d="M127 442v504q0 176 166 310.5t387 134.5h1026v-111h-608v-502h516v-110h-516v-557h661v-111h-1077q-231 0 -393 129t-162 313zM246 449q4 -147 130 -242.5t306 -95.5h297v1169h-299q-160 0 -297 -103.5t-137 -236.5v-491z" />
<glyph unicode="&#x153;" horiz-adv-x="1822" d="M117 352v359q0 152 121.5 254t302.5 102q123 0 230.5 -54.5t158.5 -148.5q49 82 146.5 142.5t219.5 60.5q174 0 297 -88t123 -254v-141l-719 -99v-145q0 -113 104.5 -177.5t244.5 -64.5q84 0 174 26t139 62l61 -82q-66 -53 -171 -81.5t-206 -28.5q-135 0 -247.5 50 t-167.5 149q-53 -92 -156.5 -145.5t-228.5 -53.5q-182 0 -304 102t-122 256zM238 356q0 -104 92 -178t221 -74q127 0 219 70t94 168v377q-2 98 -95 167.5t-218 69.5q-131 0 -222 -72.5t-91 -176.5v-351zM997 586l594 78v59q0 98 -82 165.5t-198 67.5q-123 0 -217.5 -71.5 t-96.5 -165.5v-133z" />
<glyph unicode="&#x178;" horiz-adv-x="1179" d="M80 1393h139l367 -713l372 713h142l-455 -838v-555h-121v555zM348 1526v145h135v-145h-135zM692 1526v145h135v-145h-135z" />
<glyph unicode="&#x2c6;" horiz-adv-x="724" d="M109 1237l251 172l254 -172l-53 -68l-201 129l-202 -127z" />
<glyph unicode="&#x2dc;" horiz-adv-x="827" d="M111 1272q78 125 174 125q49 0 139 -49.5t133 -49.5q49 4 80 68l78 -45q-68 -123 -162 -123q-61 0 -145 48t-125 48q-57 0 -99 -71z" />
<glyph unicode="&#x2013;" horiz-adv-x="1161" d="M14 545v96h1121v-96h-1121z" />
<glyph unicode="&#x2014;" horiz-adv-x="1599" d="M16 545v96h1563v-96h-1563z" />
<glyph unicode="&#x2018;" horiz-adv-x="249" d="M66 1051v57q0 240 92 346l63 -43q-47 -82 -47 -246v-114h-108z" />
<glyph unicode="&#x2019;" horiz-adv-x="253" d="M8 1098q70 100 70 241v113h112v-53q0 -135 -27.5 -207t-82.5 -137z" />
<glyph unicode="&#x201a;" horiz-adv-x="458" d="M199 -203q68 98 67 242v113h115v-54q0 -135 -27.5 -206.5t-85.5 -137.5z" />
<glyph unicode="&#x201c;" horiz-adv-x="487" d="M66 1049v57q0 133 21.5 212t72.5 136l63 -43q-47 -82 -47 -246v-116h-110zM313 1049v57q0 133 21.5 212t73.5 136l63 -43q-47 -82 -47 -246v-116h-111z" />
<glyph unicode="&#x201d;" horiz-adv-x="518" d="M8 1042q70 100 70 242v113h112v-54q0 -135 -27.5 -206.5t-82.5 -137.5zM270 1042q70 100 70 242v113h113v-54q0 -135 -28 -206.5t-83 -137.5z" />
<glyph unicode="&#x201e;" horiz-adv-x="800" d="M199 -201q68 98 67 242v113h115v-54q0 -135 -27.5 -206.5t-85.5 -137.5zM530 -199q68 98 68 242v113h115v-54q0 -135 -28 -206.5t-85 -137.5z" />
<glyph unicode="&#x2022;" horiz-adv-x="706" d="M174 360v351h356v-351h-356z" />
<glyph unicode="&#x2026;" horiz-adv-x="1486" d="M174 0v193h180v-193h-180zM653 0v193h178v-193h-178zM1130 0v193h181v-193h-181z" />
<glyph unicode="&#x2039;" horiz-adv-x="614" d="M113 356l321 369l64 -70l-242 -295l242 -290l-64 -70z" />
<glyph unicode="&#x203a;" horiz-adv-x="614" d="M113 70l241 290l-241 295l65 70l322 -369l-322 -356z" />
<glyph unicode="&#x20ac;" horiz-adv-x="1341" d="M84 535v88h178v170h-178v86h178v86q0 201 146.5 324.5t361.5 123.5q293 0 449 -162l-68 -88q-137 137 -377 137q-168 0 -280.5 -93t-112.5 -246v-82h629v-86h-629v-170h629v-88h-629v-103q0 -166 108.5 -254t288.5 -88q242 0 379 109l60 -86q-158 -133 -445 -133 q-227 0 -368.5 117.5t-141.5 330.5v107h-178z" />
<glyph unicode="&#x2122;" horiz-adv-x="1146" d="M92 1354v80h377v-80h-145v-353h-82v353h-150zM555 1004v430h84l125 -213l131 213h84v-430h-84v292l-109 -178h-45l-102 185v-299h-84z" />
<glyph unicode="&#xe000;" horiz-adv-x="1045" d="M0 1045h1045v-1045h-1045v1045z" />
<glyph unicode="&#xfb01;" horiz-adv-x="1177" d="M104 946v98h142v132q0 141 112.5 217.5t290.5 76.5q176 0 359 -49l-23 -92q-186 33 -323 33q-141 0 -219 -50t-78 -149v-119h253v-98h-253v-946h-119v946h-142zM868 0v1047h119v-1047h-119z" />
<glyph unicode="&#xfb02;" horiz-adv-x="1161" d="M61 946v98h140v132q0 141 113.5 217.5t289.5 76.5t359 -49l-9 -35h9v-1386h-121v1343q-137 18 -226 19q-139 0 -218 -50t-79 -149v-119h256v-98h-256v-946h-118v946h-140z" />
<glyph unicode="&#xfb03;" horiz-adv-x="1798" d="M78 946v98h141v132q0 141 112.5 217.5t291.5 76.5q176 0 358 -49l-4 -12q104 61 262 61q176 0 358 -49l-22 -92q-186 33 -324 33q-139 0 -218 -50t-79 -149v-119h256v-98h-256v-946h-118v946h-140v98h140v132q0 98 59 163q-141 23 -260 23q-141 0 -219 -50t-78 -149v-119 h254v-98h-254v-946h-119v946h-141zM1481 0v1047h121v-1047h-121z" />
<glyph unicode="&#xfb04;" horiz-adv-x="1853" d="M96 946v98h142v132q0 141 112.5 217.5t290.5 76.5q176 0 358 -49l-4 -10q109 59 262 59q176 0 359 -49l-2 -8h28v-1413h-118v1339q-139 23 -254 23q-139 0 -218 -50t-79 -149v-119h256v-98h-256v-946h-119v946h-139v98h139v132q0 98 59 163q-141 23 -260 23 q-141 0 -219 -50t-78 -149v-119h254v-98h-254v-946h-118v946h-142z" />
</font>
</defs>
</svg>
